<svg xmlns="http://www.w3.org/2000/svg" xmlns:xlink="http://www.w3.org/1999/xlink" width="500" zoomAndPan="magnify" viewBox="0 0 375 374.999991" height="500" preserveAspectRatio="xMidYMid meet" version="1.0"><defs><clipPath id="4b914e7d20"><path d="M 20.242188 59.546875 L 354.742188 59.546875 L 354.742188 315.296875 L 20.242188 315.296875 Z M 20.242188 59.546875 " clip-rule="nonzero"/></clipPath></defs><path fill="#ffffff" d="M 120.882812 151.839844 L 155.019531 117.703125 C 154.425781 116.746094 153.804688 115.808594 153.15625 114.890625 L 118.179688 149.867188 Z M 120.882812 151.839844 " fill-opacity="1" fill-rule="nonzero"/><path fill="#ffffff" d="M 115.09375 147.617188 L 150.867188 111.835938 C 150.171875 110.980469 149.449219 110.152344 148.703125 109.335938 L 112.398438 145.644531 Z M 115.09375 147.617188 " fill-opacity="1" fill-rule="nonzero"/><path fill="#ffffff" d="M 109.6875 133.007812 L 140.628906 102.066406 C 139.726562 101.40625 138.808594 100.761719 137.867188 100.15625 L 109.691406 128.332031 L 109.691406 133.007812 Z M 109.6875 133.007812 " fill-opacity="1" fill-rule="nonzero"/><path fill="#ffffff" d="M 109.6875 122.996094 L 134.539062 98.148438 C 133.523438 97.589844 132.492188 97.066406 131.441406 96.570312 L 109.6875 118.324219 Z M 109.6875 122.996094 " fill-opacity="1" fill-rule="nonzero"/><path fill="#ffffff" d="M 109.6875 112.984375 L 127.714844 94.957031 C 126.578125 94.515625 125.417969 94.125 124.25 93.757812 L 109.6875 108.316406 Z M 109.6875 112.984375 " fill-opacity="1" fill-rule="nonzero"/><path fill="#ffffff" d="M 109.6875 102.972656 L 120.046875 92.613281 C 118.753906 92.316406 117.4375 92.082031 116.113281 91.878906 L 109.6875 98.304688 Z M 109.6875 102.972656 " fill-opacity="1" fill-rule="nonzero"/><path fill="#ffffff" d="M 109.6875 143.015625 L 146.066406 106.636719 C 145.265625 105.875 144.453125 105.128906 143.609375 104.414062 L 109.6875 138.339844 Z M 109.6875 143.015625 " fill-opacity="1" fill-rule="nonzero"/><path fill="#ffffff" d="M 111.292969 91.359375 C 110.753906 91.324219 110.222656 91.304688 109.6875 91.285156 L 109.6875 92.96875 Z M 111.292969 91.359375 " fill-opacity="1" fill-rule="nonzero"/><path fill="#ffffff" d="M 126.671875 156.070312 L 158.476562 124.265625 C 158 123.195312 157.496094 122.140625 156.953125 121.109375 L 123.964844 154.097656 Z M 126.671875 156.070312 " fill-opacity="1" fill-rule="nonzero"/><path fill="#ffffff" d="M 138.246094 164.527344 L 162.816406 139.957031 C 162.648438 138.597656 162.445312 137.246094 162.183594 135.917969 L 135.550781 162.550781 Z M 138.246094 164.527344 " fill-opacity="1" fill-rule="nonzero"/><path fill="#ffffff" d="M 132.453125 160.292969 L 161.132812 131.621094 C 160.796875 130.421875 160.425781 129.238281 160.011719 128.074219 L 129.753906 158.332031 Z M 132.453125 160.292969 " fill-opacity="1" fill-rule="nonzero"/><path fill="#ffffff" d="M 149.820312 172.988281 L 161.203125 161.601562 C 161.75 159.648438 162.191406 157.648438 162.519531 155.621094 L 147.121094 171.015625 Z M 149.820312 172.988281 " fill-opacity="1" fill-rule="nonzero"/><path fill="#ffffff" d="M 144.03125 168.757812 L 163.15625 149.636719 C 163.207031 148.671875 163.238281 147.703125 163.238281 146.71875 C 163.238281 146.117188 163.214844 145.519531 163.195312 144.921875 L 141.332031 166.789062 Z M 144.03125 168.757812 " fill-opacity="1" fill-rule="nonzero"/><path fill="#ffffff" d="M 154.570312 176.453125 C 155.871094 174.410156 157.042969 172.285156 158.070312 170.078125 L 152.910156 175.238281 Z M 154.570312 176.453125 " fill-opacity="1" fill-rule="nonzero"/><g clip-path="url(#4b914e7d20)"><path fill="#ffffff" d="M 335.410156 315.21875 L 39.589844 315.21875 C 29.265625 315.21875 20.871094 306.820312 20.871094 296.503906 L 20.871094 78.113281 C 20.871094 67.789062 29.269531 59.390625 39.589844 59.390625 L 335.410156 59.390625 C 345.730469 59.390625 354.125 67.792969 354.125 78.113281 L 354.125 296.503906 C 354.128906 306.820312 345.730469 315.21875 335.410156 315.21875 Z M 39.589844 66.878906 C 33.398438 66.878906 28.355469 71.917969 28.355469 78.113281 L 28.355469 296.503906 C 28.355469 302.695312 33.398438 307.734375 39.589844 307.734375 L 335.410156 307.734375 C 341.601562 307.734375 346.640625 302.695312 346.640625 296.503906 L 346.640625 78.113281 C 346.640625 71.917969 341.601562 66.878906 335.410156 66.878906 Z M 39.589844 66.878906 " fill-opacity="1" fill-rule="nonzero"/></g><path fill="#ffffff" d="M 211.652344 133.082031 L 226.019531 133.082031 L 226.019531 180.113281 L 211.652344 180.113281 Z M 211.652344 133.082031 " fill-opacity="1" fill-rule="nonzero"/><path fill="#ffffff" d="M 233.949219 137.003906 L 248.316406 137.003906 L 248.316406 180.117188 L 233.949219 180.117188 Z M 233.949219 137.003906 " fill-opacity="1" fill-rule="nonzero"/><path fill="#ffffff" d="M 256.238281 144.847656 L 270.605469 144.847656 L 270.605469 180.117188 L 256.238281 180.117188 Z M 256.238281 144.847656 " fill-opacity="1" fill-rule="nonzero"/><path fill="#ffffff" d="M 278.535156 125.242188 L 292.902344 125.242188 L 292.902344 180.113281 L 278.535156 180.113281 Z M 278.535156 125.242188 " fill-opacity="1" fill-rule="nonzero"/><path fill="#ffffff" d="M 300.828125 125.242188 L 315.195312 125.242188 L 315.195312 180.113281 L 300.828125 180.113281 Z M 300.828125 125.242188 " fill-opacity="1" fill-rule="nonzero"/><path fill="#ffffff" d="M 314.476562 212.328125 L 239.03125 249.398438 L 211.574219 232.777344 L 162.046875 255.289062 L 81.808594 262.371094 L 50.207031 284.828125 L 314.25 284.828125 Z M 314.476562 212.328125 " fill-opacity="1" fill-rule="nonzero"/><path fill="#ffffff" d="M 107.652344 202.070312 C 77.050781 202.070312 52.152344 177.175781 52.152344 146.570312 C 52.152344 116.664062 75.929688 92.21875 105.566406 91.121094 L 105.566406 146.027344 L 105.59375 146.027344 L 151.980469 179.921875 C 151.976562 179.921875 151.976562 179.921875 151.976562 179.921875 C 141.847656 193.363281 125.746094 202.070312 107.652344 202.070312 Z M 107.652344 202.070312 " fill-opacity="1" fill-rule="nonzero"/></svg>