<svg xmlns="http://www.w3.org/2000/svg" xmlns:xlink="http://www.w3.org/1999/xlink" width="500" zoomAndPan="magnify" viewBox="0 0 375 374.999991" height="500" preserveAspectRatio="xMidYMid meet" version="1.0"><defs><clipPath id="5502707b3f"><path d="M 23 266 L 86 266 L 86 331.34375 L 23 331.34375 Z M 23 266 " clip-rule="nonzero"/></clipPath><clipPath id="52e977e70f"><path d="M 69 43.34375 L 353 43.34375 L 353 279 L 69 279 Z M 69 43.34375 " clip-rule="nonzero"/></clipPath></defs><path fill="#ffffff" d="M 248.609375 142.042969 C 246.414062 140.902344 245.710938 138.089844 247.179688 136.09375 L 265.382812 111.367188 C 268.390625 107.285156 265.472656 101.507812 260.398438 101.507812 L 188.621094 101.507812 C 183.546875 101.507812 180.628906 107.261719 183.636719 111.367188 L 201.839844 136.09375 C 203.308594 138.089844 202.628906 140.902344 200.410156 142.042969 C 182.425781 151.332031 170.484375 170.675781 172.042969 192.65625 C 173.90625 219.046875 195.582031 240.148438 222.015625 241.378906 C 252.210938 242.761719 277.109375 218.71875 277.109375 188.835938 C 277.132812 168.457031 265.539062 150.78125 248.609375 142.042969 Z M 218.613281 180.753906 C 219.800781 181.65625 222.480469 182.796875 226.585938 184.179688 C 230.296875 185.386719 233.195312 186.59375 235.28125 187.78125 C 237.367188 188.964844 239.054688 190.613281 240.351562 192.765625 C 241.667969 194.894531 242.304688 197.398438 242.304688 200.253906 C 242.304688 203.984375 241.121094 207.324219 238.816406 210.308594 C 237.78125 211.628906 236.488281 212.746094 234.929688 213.601562 C 233.5 214.394531 231.832031 215.007812 229.945312 215.402344 C 229.789062 215.449219 229.613281 215.46875 229.4375 215.511719 L 229.4375 222.429688 L 219.558594 222.429688 L 219.558594 215.558594 C 219.339844 215.511719 219.117188 215.46875 218.898438 215.425781 C 212.621094 214.085938 208.46875 210.179688 206.472656 203.699219 L 215.757812 200.097656 C 215.914062 200.496094 216.066406 200.890625 216.21875 201.261719 C 217.714844 204.6875 221.074219 206.949219 224.71875 206.972656 C 224.71875 206.972656 225.265625 206.949219 225.925781 206.90625 C 226.5625 206.839844 227.308594 206.753906 227.75 206.644531 C 228.847656 206.355469 229.746094 205.875 230.40625 205.195312 C 231.589844 204.007812 232.183594 202.582031 232.183594 200.890625 C 232.183594 199.15625 231.589844 197.816406 230.40625 196.9375 C 229.21875 196.035156 226.539062 194.894531 222.433594 193.511719 C 218.722656 192.304688 215.824219 191.097656 213.738281 189.910156 C 211.652344 188.726562 209.960938 187.054688 208.644531 184.925781 C 207.351562 182.796875 206.691406 180.292969 206.691406 177.4375 C 206.691406 173.707031 207.855469 170.367188 210.183594 167.382812 C 211.214844 166.066406 212.507812 164.945312 214.070312 164.089844 C 215.496094 163.296875 217.164062 162.683594 219.03125 162.289062 C 219.207031 162.246094 219.382812 162.222656 219.535156 162.179688 L 219.535156 155.261719 L 229.417969 155.261719 L 229.417969 162.15625 C 229.636719 162.199219 229.855469 162.246094 230.074219 162.289062 C 236.355469 163.628906 240.503906 167.535156 242.503906 174.011719 L 233.214844 177.613281 C 233.039062 177.109375 232.84375 176.648438 232.644531 176.210938 C 231.128906 172.871094 227.859375 170.765625 224.257812 170.765625 C 224.257812 170.765625 223.707031 170.785156 223.070312 170.828125 C 222.414062 170.894531 221.667969 170.984375 221.226562 171.09375 C 220.128906 171.378906 219.230469 171.863281 218.570312 172.542969 C 217.382812 173.726562 216.769531 175.15625 216.769531 176.847656 C 216.8125 178.535156 217.429688 179.875 218.613281 180.753906 Z M 218.613281 180.753906 " fill-opacity="1" fill-rule="nonzero"/><path fill="#ffffff" d="M 272.277344 268.210938 C 267.976562 266.082031 263.429688 266.191406 258.863281 266.871094 C 250.539062 268.101562 242.765625 271.132812 235.761719 275.589844 C 227.351562 280.925781 218.351562 281.605469 209.085938 280.15625 C 201.574219 278.992188 194.175781 276.929688 186.796875 274.976562 C 183.019531 273.964844 179.398438 272.40625 175.707031 271.066406 C 175.46875 270.980469 175.3125 270.714844 175.355469 270.453125 C 175.402344 270.1875 175.664062 269.992188 175.929688 270.011719 C 177.707031 270.144531 179.484375 270.167969 181.242188 270.472656 C 188.046875 271.636719 194.789062 273.328125 201.640625 274.007812 C 205.746094 274.425781 210.226562 274.054688 214.113281 272.757812 C 220.699219 270.5625 221.667969 262.570312 215.914062 258.769531 C 213.015625 256.859375 209.390625 255.652344 205.921875 255.039062 C 193.1875 252.796875 180.914062 249.480469 169.429688 243.246094 C 157.21875 236.613281 144.132812 232.707031 130.191406 236.023438 C 121.890625 238 113.722656 240.960938 105.839844 244.277344 C 96.179688 248.339844 87.679688 253.433594 78.085938 258.046875 L 100.21875 297.703125 C 113.0625 291.792969 126.195312 291.070312 139.566406 294.539062 C 148.394531 296.84375 157.21875 299.195312 166.003906 301.742188 C 190.773438 308.945312 215.144531 308.21875 238.816406 297.613281 C 250.144531 292.542969 261.082031 286.613281 272.234375 281.144531 C 274.847656 279.851562 277.109375 278.355469 277.132812 275.105469 C 277.152344 271.703125 275.132812 269.617188 272.277344 268.210938 Z M 272.277344 268.210938 " fill-opacity="1" fill-rule="nonzero"/><g clip-path="url(#5502707b3f)"><path fill="#ffffff" d="M 64.121094 268.605469 C 62.976562 266.609375 60.410156 265.929688 58.410156 267.070312 L 26.441406 285.472656 C 23.410156 287.207031 22.355469 291.070312 24.113281 294.101562 C 29.449219 303.324219 39.945312 321.503906 43.347656 327.148438 C 44.644531 329.277344 46.773438 330.921875 49.253906 331.296875 C 51.078125 331.558594 52.964844 331.230469 54.679688 330.265625 L 81.09375 315.070312 C 85.132812 312.742188 86.539062 307.582031 84.210938 303.519531 Z M 69.871094 312.019531 C 68.46875 317.242188 63.066406 320.363281 57.839844 318.933594 C 52.613281 317.527344 49.496094 312.128906 50.921875 306.902344 C 52.328125 301.675781 57.730469 298.558594 62.957031 299.984375 C 68.183594 301.410156 71.277344 306.792969 69.871094 312.019531 Z M 69.871094 312.019531 " fill-opacity="1" fill-rule="nonzero"/></g><g clip-path="url(#52e977e70f)"><path fill="#ffffff" d="M 224.519531 43.363281 C 157.96875 43.363281 103.117188 94.351562 96.96875 159.324219 L 73.230469 159.324219 C 70.574219 159.324219 69.015625 162.308594 70.53125 164.503906 L 102.566406 210.75 L 103.796875 212.527344 C 105.09375 214.414062 107.902344 214.414062 109.199219 212.527344 L 119.410156 197.792969 L 142.464844 164.503906 C 143.980469 162.308594 142.421875 159.324219 139.765625 159.324219 L 116.882812 159.324219 C 122.945312 105.308594 168.902344 63.148438 224.519531 63.148438 C 284.246094 63.148438 332.839844 111.742188 332.839844 171.464844 C 332.839844 207.058594 315.601562 238.699219 289.011719 258.460938 C 293.09375 263.03125 295.289062 268.804688 295.246094 275.214844 C 295.222656 276.160156 295.160156 277.238281 295.003906 278.402344 C 329.699219 255.433594 352.601562 216.085938 352.601562 171.488281 C 352.621094 100.828125 295.160156 43.363281 224.519531 43.363281 Z M 224.519531 43.363281 " fill-opacity="1" fill-rule="nonzero"/></g></svg>