<svg xmlns="http://www.w3.org/2000/svg" xmlns:xlink="http://www.w3.org/1999/xlink" width="500" zoomAndPan="magnify" viewBox="0 0 375 374.999991" height="500" preserveAspectRatio="xMidYMid meet" version="1.0"><defs><clipPath id="3098ac39e2"><path d="M 245 89 L 349.691406 89 L 349.691406 245 L 245 245 Z M 245 89 " clip-rule="nonzero"/></clipPath><clipPath id="f4bd5091d7"><path d="M 144 39.167969 L 245 39.167969 L 245 133 L 144 133 Z M 144 39.167969 " clip-rule="nonzero"/></clipPath></defs><path fill="#ffffff" d="M 295.25 171.472656 C 295.359375 172.144531 295.402344 172.820312 295.375 173.496094 C 295.351562 174.175781 295.261719 174.84375 295.105469 175.503906 C 294.949219 176.164062 294.730469 176.804688 294.449219 177.421875 C 294.167969 178.039062 293.828125 178.625 293.429688 179.175781 C 293.035156 179.722656 292.585938 180.230469 292.089844 180.695312 C 291.59375 181.15625 291.058594 181.566406 290.480469 181.921875 C 289.902344 182.28125 289.296875 182.578125 288.660156 182.8125 C 288.023438 183.050781 287.371094 183.222656 286.703125 183.332031 C 286.03125 183.441406 285.355469 183.484375 284.679688 183.460938 C 284 183.433594 283.332031 183.34375 282.671875 183.191406 C 282.011719 183.035156 281.371094 182.816406 280.753906 182.53125 C 280.136719 182.25 279.550781 181.910156 279 181.515625 C 278.449219 181.117188 277.945312 180.671875 277.480469 180.175781 C 277.019531 179.675781 276.609375 179.140625 276.253906 178.5625 C 275.894531 177.984375 275.597656 177.378906 275.363281 176.742188 C 275.125 176.105469 274.953125 175.453125 274.84375 174.785156 C 274.734375 174.113281 274.691406 173.441406 274.714844 172.761719 C 274.738281 172.082031 274.828125 171.414062 274.984375 170.753906 C 275.140625 170.09375 275.359375 169.453125 275.644531 168.835938 C 275.925781 168.21875 276.265625 167.636719 276.660156 167.085938 C 277.058594 166.535156 277.503906 166.027344 278 165.566406 C 278.496094 165.101562 279.035156 164.691406 279.613281 164.335938 C 280.191406 163.980469 280.796875 163.683594 281.433594 163.445312 C 282.066406 163.207031 282.722656 163.035156 283.390625 162.925781 C 284.0625 162.816406 284.734375 162.773438 285.414062 162.800781 C 286.09375 162.824219 286.761719 162.914062 287.421875 163.070312 C 288.082031 163.226562 288.722656 163.445312 289.339844 163.726562 C 289.957031 164.007812 290.539062 164.347656 291.089844 164.742188 C 291.640625 165.140625 292.148438 165.585938 292.609375 166.085938 C 293.074219 166.582031 293.484375 167.117188 293.839844 167.695312 C 294.195312 168.273438 294.492188 168.878906 294.730469 169.515625 C 294.96875 170.152344 295.140625 170.804688 295.25 171.472656 Z M 295.25 171.472656 " fill-opacity="1" fill-rule="nonzero"/><path fill="#ffffff" d="M 315.644531 251.171875 C 314.542969 250.5 313.109375 250.84375 312.4375 251.945312 C 302.839844 267.613281 288.140625 281.230469 269.929688 291.320312 C 269.242188 291.699219 268.792969 292.398438 268.734375 293.179688 L 266.105469 327.097656 C 265.933594 329.339844 264.03125 331.101562 261.785156 331.101562 L 238.625 331.101562 C 236.550781 331.101562 234.761719 329.621094 234.371094 327.585938 L 228.015625 294.601562 C 227.765625 293.332031 226.546875 292.507812 225.28125 292.753906 C 224.011719 293 223.183594 294.222656 223.433594 295.488281 L 225.679688 307.164062 C 215.394531 309.152344 204.785156 310.167969 194.089844 310.167969 C 186.980469 310.167969 179.84375 309.71875 172.886719 308.832031 C 171.613281 308.671875 170.441406 309.574219 170.28125 310.851562 C 170.121094 312.132812 171.019531 313.300781 172.300781 313.460938 C 179.457031 314.367188 186.785156 314.828125 194.089844 314.828125 C 205.078125 314.828125 215.988281 313.78125 226.558594 311.738281 L 229.78125 328.464844 C 230.59375 332.695312 234.316406 335.761719 238.625 335.761719 L 261.785156 335.761719 C 266.460938 335.761719 270.402344 332.113281 270.761719 327.453125 L 273.296875 294.773438 C 291.703125 284.355469 306.59375 270.40625 316.417969 254.367188 C 317.085938 253.28125 316.746094 251.847656 315.644531 251.171875 Z M 315.644531 251.171875 " fill-opacity="1" fill-rule="nonzero"/><g clip-path="url(#3098ac39e2)"><path fill="#ffffff" d="M 342.867188 177.566406 L 322.546875 173.390625 C 315.351562 156.839844 302.941406 141.789062 286.585938 129.804688 C 286.480469 129.722656 286.367188 129.664062 286.253906 129.601562 L 289.109375 94.472656 C 289.253906 92.628906 288.386719 90.863281 286.835938 89.863281 C 285.28125 88.863281 283.3125 88.796875 281.699219 89.691406 C 271.347656 95.417969 262.226562 103.207031 254.917969 112.476562 C 252.855469 111.664062 250.761719 110.875 248.65625 110.148438 C 247.433594 109.730469 246.105469 110.375 245.6875 111.589844 C 245.265625 112.8125 245.914062 114.136719 247.128906 114.558594 C 248.769531 115.125 250.402344 115.730469 252.023438 116.359375 C 251.234375 117.480469 250.460938 118.613281 249.726562 119.773438 L 248.667969 121.441406 C 247.972656 122.527344 248.300781 123.96875 249.386719 124.660156 C 250.476562 125.355469 251.914062 125.027344 252.609375 123.941406 L 253.667969 122.273438 C 261.199219 110.421875 271.667969 100.566406 283.953125 93.769531 C 284 93.746094 284.125 93.675781 284.292969 93.785156 C 284.460938 93.890625 284.445312 94.039062 284.445312 94.089844 L 280.726562 139.921875 C 280.617188 141.207031 281.578125 142.335938 282.867188 142.433594 C 282.933594 142.441406 282.992188 142.441406 283.058594 142.441406 C 284.261719 142.441406 285.285156 141.515625 285.378906 140.292969 L 285.808594 135.058594 C 300.859375 146.5625 312.222656 160.789062 318.726562 176.328125 C 319.027344 177.039062 319.652344 177.554688 320.40625 177.714844 L 341.921875 182.136719 C 343.925781 182.546875 345.382812 184.335938 345.382812 186.382812 L 345.382812 219.09375 C 345.382812 226.695312 339.980469 233.351562 332.535156 234.914062 C 332.535156 234.914062 320.765625 237.382812 320.765625 237.382812 L 308.207031 240.015625 C 306.949219 240.28125 306.140625 241.515625 306.402344 242.777344 C 306.632812 243.875 307.601562 244.628906 308.683594 244.628906 C 308.84375 244.628906 333.492188 239.476562 333.492188 239.476562 C 343.082031 237.460938 350.042969 228.890625 350.042969 219.085938 L 350.042969 186.375 C 350.054688 182.136719 347.035156 178.425781 342.867188 177.566406 Z M 342.867188 177.566406 " fill-opacity="1" fill-rule="nonzero"/></g><g clip-path="url(#f4bd5091d7)"><path fill="#ffffff" d="M 147.191406 127.328125 C 145.980469 127.757812 145.339844 129.089844 145.773438 130.308594 C 146.207031 131.523438 147.539062 132.164062 148.753906 131.730469 C 156.949219 128.828125 165.480469 126.777344 174.25 125.554688 C 174.449219 125.582031 174.648438 125.589844 174.855469 125.5625 C 179.144531 124.957031 183.492188 124.554688 187.867188 124.363281 C 189.667969 124.292969 191.472656 124.253906 193.296875 124.253906 C 209.414062 124.253906 224.917969 126.960938 239.390625 132.296875 C 239.65625 132.398438 239.929688 132.445312 240.199219 132.445312 C 241.144531 132.445312 242.039062 131.859375 242.386719 130.917969 C 242.832031 129.710938 242.210938 128.363281 241.003906 127.921875 C 237.324219 126.5625 233.582031 125.375 229.78125 124.347656 C 238.644531 115.320312 244.121094 102.953125 244.121094 89.335938 C 244.121094 61.746094 221.671875 39.304688 194.089844 39.304688 C 166.503906 39.304688 144.058594 61.753906 144.058594 89.335938 C 144.058594 102.792969 149.40625 115.011719 158.074219 124.015625 C 154.394531 124.957031 150.765625 126.0625 147.191406 127.328125 Z M 196.863281 95.25 C 196.683594 94.871094 196.375 94.523438 195.957031 94.203125 C 195.527344 93.882812 194.980469 93.589844 194.296875 93.316406 C 193.613281 93.042969 192.789062 92.742188 191.820312 92.410156 C 190.667969 92.042969 189.539062 91.644531 188.441406 91.210938 C 187.332031 90.769531 186.351562 90.191406 185.484375 89.460938 C 184.625 88.734375 183.925781 87.820312 183.398438 86.714844 C 182.863281 85.609375 182.605469 84.207031 182.605469 82.511719 C 182.605469 80.820312 182.886719 79.277344 183.445312 77.90625 C 184.003906 76.523438 184.792969 75.34375 185.804688 74.363281 C 186.820312 73.382812 188.058594 72.617188 189.527344 72.070312 C 189.601562 72.042969 189.671875 72.023438 189.742188 71.996094 L 189.742188 67.867188 C 189.742188 67.320312 190.1875 66.875 190.734375 66.875 L 195.75 66.875 C 196.296875 66.875 196.742188 67.320312 196.742188 67.867188 L 196.742188 71.390625 C 197.730469 71.503906 198.738281 71.691406 199.769531 71.957031 C 201.089844 72.289062 202.378906 72.742188 203.617188 73.304688 C 204.425781 73.671875 204.773438 74.632812 204.371094 75.417969 L 202.371094 79.339844 C 201.945312 80.171875 200.910156 80.445312 200.109375 79.960938 C 199.617188 79.660156 199.125 79.414062 198.628906 79.21875 C 197.664062 78.839844 196.722656 78.652344 195.816406 78.652344 C 194.664062 78.652344 193.726562 78.925781 193 79.472656 C 192.273438 80.019531 191.914062 80.726562 191.914062 81.605469 C 191.914062 82.214844 192.09375 82.714844 192.460938 83.105469 C 192.820312 83.5 193.300781 83.839844 193.894531 84.128906 C 194.488281 84.414062 195.148438 84.667969 195.894531 84.875 C 196.636719 85.085938 197.371094 85.316406 198.097656 85.554688 C 201.003906 86.523438 203.132812 87.816406 204.480469 89.4375 C 205.824219 91.054688 206.5 93.171875 206.5 95.773438 C 206.5 97.527344 206.207031 99.121094 205.613281 100.539062 C 205.019531 101.960938 204.160156 103.179688 203.023438 104.195312 C 201.890625 105.207031 200.496094 105.996094 198.84375 106.554688 C 198.183594 106.78125 197.484375 106.957031 196.75 107.09375 L 196.75 110.785156 C 196.75 111.332031 196.300781 111.777344 195.757812 111.777344 L 190.742188 111.777344 C 190.195312 111.777344 189.746094 111.332031 189.746094 110.785156 L 189.746094 107.109375 C 187.1875 106.675781 184.753906 105.753906 182.429688 104.339844 C 181.722656 103.914062 181.472656 103.015625 181.859375 102.289062 L 184.132812 98.011719 C 184.570312 97.183594 185.644531 96.933594 186.398438 97.484375 C 187.257812 98.117188 188.113281 98.621094 188.96875 99 C 190.265625 99.574219 191.554688 99.859375 192.828125 99.859375 C 194.28125 99.859375 195.363281 99.527344 196.074219 98.859375 C 196.789062 98.191406 197.144531 97.4375 197.144531 96.585938 C 197.136719 96.078125 197.050781 95.632812 196.863281 95.25 Z M 148.71875 89.328125 C 148.71875 64.3125 169.074219 43.96875 194.082031 43.96875 C 219.089844 43.96875 239.445312 64.320312 239.445312 89.328125 C 239.445312 102.6875 233.636719 114.703125 224.414062 123.015625 C 221.816406 122.425781 219.203125 121.921875 216.5625 121.480469 C 216.328125 121.355469 216.078125 121.253906 215.796875 121.214844 C 214.96875 121.085938 214.136719 120.960938 213.300781 120.847656 C 223.914062 114.363281 231 102.675781 231 89.328125 C 231 68.9375 214.46875 52.402344 194.074219 52.402344 C 173.679688 52.402344 157.148438 68.9375 157.148438 89.328125 C 157.148438 102.628906 164.179688 114.285156 174.730469 120.78125 C 170.921875 121.273438 167.152344 121.925781 163.429688 122.726562 C 154.40625 114.429688 148.71875 102.535156 148.71875 89.328125 Z M 148.71875 89.328125 " fill-opacity="1" fill-rule="nonzero"/></g><path fill="#ffffff" d="M 162.898438 292.753906 C 161.628906 292.507812 160.410156 293.339844 160.164062 294.601562 L 153.808594 327.585938 C 153.414062 329.621094 151.628906 331.101562 149.554688 331.101562 L 126.390625 331.101562 C 124.144531 331.101562 122.242188 329.347656 122.070312 327.097656 L 119.441406 293.179688 C 119.382812 292.398438 118.9375 291.699219 118.25 291.320312 C 83.664062 272.144531 63.023438 241.003906 63.023438 208.003906 C 63.023438 167.628906 93.648438 130.949219 141.042969 114.566406 C 142.265625 114.144531 142.910156 112.816406 142.484375 111.597656 C 142.0625 110.375 140.738281 109.730469 139.515625 110.15625 C 100.457031 123.660156 72.351562 150.570312 62.355469 182.25 L 56.308594 179.46875 C 54.226562 178.507812 52.351562 177.191406 50.765625 175.59375 C 54.199219 174.699219 57.460938 173.019531 60.273438 170.589844 C 64.949219 166.554688 66.097656 159.753906 63.003906 154.417969 L 62.921875 154.277344 C 61.054688 151.0625 57.886719 148.808594 54.238281 148.109375 C 50.585938 147.410156 46.816406 148.316406 43.890625 150.617188 C 39.292969 154.21875 37.707031 160.472656 40.027344 165.835938 L 42.503906 171.542969 C 40.347656 171.277344 38.222656 170.644531 36.207031 169.625 L 28.675781 165.808594 C 27.53125 165.230469 26.125 165.6875 25.542969 166.835938 C 24.964844 167.984375 25.421875 169.390625 26.570312 169.972656 L 34.097656 173.785156 C 37.648438 175.585938 41.480469 176.433594 45.285156 176.351562 C 47.632812 179.5 50.746094 182.035156 54.375 183.707031 L 61.070312 186.789062 C 59.296875 193.691406 58.367188 200.789062 58.367188 208.003906 C 58.367188 242.371094 79.476562 274.734375 114.902344 294.789062 L 117.429688 327.464844 C 117.789062 332.128906 121.730469 335.773438 126.40625 335.773438 L 149.566406 335.773438 C 153.875 335.773438 157.589844 332.707031 158.410156 328.472656 L 164.765625 295.488281 C 164.992188 294.222656 164.164062 292.992188 162.898438 292.753906 Z M 46.796875 169.742188 L 44.296875 163.976562 C 42.816406 160.566406 43.828125 156.578125 46.757812 154.285156 C 48.210938 153.144531 49.984375 152.542969 51.800781 152.542969 C 52.3125 152.542969 52.832031 152.589844 53.347656 152.691406 C 55.671875 153.136719 57.6875 154.570312 58.875 156.621094 L 58.953125 156.757812 C 60.929688 160.160156 60.195312 164.488281 57.222656 167.054688 C 54.433594 169.457031 51.113281 170.945312 47.652344 171.472656 C 47.335938 170.910156 47.058594 170.335938 46.796875 169.742188 Z M 46.796875 169.742188 " fill-opacity="1" fill-rule="nonzero"/><path fill="#ffffff" d="M 80.855469 113.910156 C 80.941406 113.910156 81.027344 113.90625 81.109375 113.898438 L 98.367188 112.011719 C 99.648438 111.871094 100.574219 110.714844 100.4375 109.4375 C 100.296875 108.15625 99.140625 107.234375 97.863281 107.367188 L 80.601562 109.257812 C 79.320312 109.394531 78.394531 110.550781 78.535156 111.832031 C 78.675781 113.03125 79.683594 113.910156 80.855469 113.910156 Z M 80.855469 113.910156 " fill-opacity="1" fill-rule="nonzero"/><path fill="#ffffff" d="M 115.519531 62 C 115.980469 62.480469 116.59375 62.71875 117.207031 62.71875 C 117.789062 62.71875 118.367188 62.507812 118.824219 62.074219 C 119.757812 61.179688 119.78125 59.707031 118.890625 58.773438 L 106.871094 46.234375 C 105.976562 45.300781 104.503906 45.273438 103.570312 46.167969 C 102.636719 47.0625 102.609375 48.535156 103.503906 49.46875 Z M 115.519531 62 " fill-opacity="1" fill-rule="nonzero"/><path fill="#ffffff" d="M 293.804688 72.851562 C 294.402344 72.851562 295.003906 72.617188 295.457031 72.164062 L 307.6875 59.839844 C 308.59375 58.925781 308.589844 57.445312 307.675781 56.539062 C 306.761719 55.632812 305.28125 55.636719 304.375 56.550781 L 292.144531 68.875 C 291.234375 69.789062 291.242188 71.269531 292.15625 72.175781 C 292.617188 72.628906 293.210938 72.851562 293.804688 72.851562 Z M 293.804688 72.851562 " fill-opacity="1" fill-rule="nonzero"/><path fill="#ffffff" d="M 307.667969 120.558594 C 307.507812 121.839844 308.410156 123.007812 309.6875 123.167969 L 326.914062 125.355469 C 327.015625 125.367188 327.113281 125.375 327.214844 125.375 C 328.375 125.375 329.375 124.515625 329.527344 123.335938 C 329.6875 122.054688 328.789062 120.886719 327.507812 120.726562 L 310.28125 118.539062 C 309.003906 118.371094 307.828125 119.28125 307.667969 120.558594 Z M 307.667969 120.558594 " fill-opacity="1" fill-rule="nonzero"/></svg>