<svg xmlns="http://www.w3.org/2000/svg" xmlns:xlink="http://www.w3.org/1999/xlink" width="500" zoomAndPan="magnify" viewBox="0 0 375 374.999991" height="500" preserveAspectRatio="xMidYMid meet" version="1.0"><defs><clipPath id="9a01e31447"><path d="M 24.167969 24.78125 L 351 24.78125 L 351 350.28125 L 24.167969 350.28125 Z M 24.167969 24.78125 " clip-rule="nonzero"/></clipPath></defs><g clip-path="url(#9a01e31447)"><path fill="#ffffff" d="M 341.652344 186.703125 L 318.605469 182.359375 C 316.015625 172.339844 312.089844 162.820312 306.914062 153.964844 L 320.109375 134.59375 C 323.113281 130.167969 322.53125 124.320312 318.773438 120.5625 L 300.652344 102.441406 C 298.480469 100.269531 295.640625 99.1875 292.800781 99.1875 C 290.628906 99.1875 288.457031 99.855469 286.539062 101.105469 L 267.164062 114.300781 C 258.3125 109.125 248.792969 105.199219 238.769531 102.609375 L 234.429688 79.5625 C 233.425781 74.300781 228.835938 70.542969 223.574219 70.542969 L 197.9375 70.542969 C 192.589844 70.542969 188.082031 74.300781 187.082031 79.5625 L 185.160156 89.582031 C 183.738281 86.074219 181.984375 82.652344 179.980469 79.3125 L 189.667969 65.113281 C 191.171875 62.941406 190.921875 59.9375 189 58.101562 L 176.726562 45.824219 C 174.804688 43.902344 171.882812 43.652344 169.710938 45.15625 L 155.515625 54.84375 C 149 50.835938 141.902344 47.910156 134.46875 46.160156 L 131.296875 29.289062 C 130.796875 26.699219 128.542969 24.78125 125.867188 24.78125 L 108.5 24.78125 C 105.828125 24.78125 103.574219 26.699219 103.070312 29.289062 L 99.898438 46.160156 C 92.382812 47.910156 85.367188 50.835938 78.855469 54.84375 L 64.65625 45.15625 C 62.488281 43.652344 59.480469 43.902344 57.644531 45.824219 L 45.367188 58.101562 C 43.445312 60.019531 43.195312 62.941406 44.699219 65.113281 L 54.386719 79.3125 C 50.378906 85.824219 47.457031 92.921875 45.703125 100.355469 L 28.832031 103.527344 C 26.246094 104.027344 24.324219 106.285156 24.324219 108.957031 L 24.324219 126.492188 C 24.324219 129.164062 26.246094 131.417969 28.832031 131.921875 L 45.703125 135.09375 C 47.539062 142.609375 50.378906 149.625 54.386719 156.136719 L 44.699219 170.335938 C 43.195312 172.503906 43.445312 175.511719 45.367188 177.347656 L 57.644531 189.625 C 59.5625 191.546875 62.488281 191.796875 64.65625 190.292969 L 78.855469 180.605469 C 81.695312 182.359375 84.699219 183.863281 87.789062 185.113281 L 80.191406 186.535156 C 74.929688 187.535156 71.171875 192.128906 71.171875 197.390625 L 71.171875 223.027344 C 71.171875 228.371094 74.929688 232.882812 80.191406 233.882812 L 102.988281 238.394531 C 105.578125 248.414062 109.5 257.933594 114.679688 266.785156 L 101.484375 286.160156 C 98.476562 290.585938 99.0625 296.429688 102.820312 300.1875 L 120.941406 318.308594 C 123.113281 320.480469 125.953125 321.566406 128.792969 321.566406 C 130.964844 321.566406 133.132812 320.898438 135.054688 319.644531 L 154.429688 306.453125 C 163.28125 311.628906 172.800781 315.554688 182.820312 318.144531 L 187.164062 341.191406 C 188.164062 346.453125 192.757812 350.210938 198.019531 350.210938 L 223.65625 350.210938 C 229 350.210938 233.511719 346.453125 234.511719 341.191406 L 238.855469 318.144531 C 248.875 315.554688 258.394531 311.628906 267.246094 306.453125 L 286.621094 319.644531 C 288.542969 320.898438 290.714844 321.566406 292.882812 321.566406 C 295.722656 321.566406 298.5625 320.480469 300.734375 318.308594 L 318.855469 300.1875 C 322.613281 296.429688 323.199219 290.5 320.191406 286.160156 L 306.914062 266.785156 C 312.089844 257.933594 316.015625 248.414062 318.605469 238.394531 L 341.652344 234.050781 C 346.914062 233.046875 350.671875 228.457031 350.671875 223.195312 L 350.671875 197.558594 C 350.589844 192.214844 346.832031 187.703125 341.652344 186.703125 Z M 75.429688 169.5 L 61.984375 178.683594 L 56.140625 172.839844 L 65.324219 159.394531 C 66.578125 157.472656 66.578125 155.050781 65.324219 153.132812 C 60.398438 145.949219 57.140625 137.933594 55.472656 129.332031 C 55.054688 127.078125 53.300781 125.324219 51.046875 124.90625 L 35.011719 121.898438 L 35.011719 113.632812 L 51.046875 110.625 C 53.300781 110.207031 55.054688 108.453125 55.472656 106.199219 C 57.058594 97.597656 60.398438 89.582031 65.324219 82.402344 C 66.578125 80.480469 66.578125 78.058594 65.324219 76.136719 L 56.140625 62.691406 L 61.984375 56.847656 L 75.429688 66.03125 C 77.265625 67.285156 79.773438 67.285156 81.695312 66.03125 C 88.875 61.105469 96.890625 57.847656 105.492188 56.179688 C 107.746094 55.761719 109.5 54.007812 109.917969 51.753906 L 112.925781 35.71875 L 121.191406 35.71875 L 124.199219 51.753906 C 124.617188 54.007812 126.371094 55.761719 128.625 56.179688 C 137.226562 57.765625 145.242188 61.105469 152.425781 66.03125 C 154.34375 67.371094 156.765625 67.371094 158.6875 66.03125 L 172.132812 56.847656 L 177.976562 62.691406 L 168.792969 76.136719 C 167.539062 78.058594 167.539062 80.480469 168.792969 82.402344 C 173.300781 88.996094 176.390625 96.261719 178.144531 104.113281 C 171.964844 106.035156 166.035156 108.453125 160.359375 111.378906 C 157.183594 90.167969 139.148438 73.800781 117.101562 73.800781 C 92.882812 73.800781 73.09375 93.507812 73.09375 117.808594 C 73.09375 140.019531 89.710938 158.226562 111.171875 161.148438 C 108.332031 166.910156 105.910156 172.839844 104.15625 179.019531 C 96.058594 177.347656 88.542969 174.175781 81.777344 169.5 C 79.855469 168.164062 77.351562 168.164062 75.429688 169.5 Z M 101.566406 134.59375 L 112.171875 150.125 C 96.390625 147.703125 84.199219 134.175781 84.199219 117.722656 C 84.199219 99.601562 98.980469 84.824219 117.101562 84.824219 C 132.882812 84.824219 145.996094 95.929688 149.25 110.710938 L 135.054688 101.105469 C 133.132812 99.855469 130.964844 99.1875 128.792969 99.1875 C 125.953125 99.1875 123.113281 100.269531 120.941406 102.441406 L 102.820312 120.5625 C 99.148438 124.320312 98.5625 130.25 101.566406 134.59375 Z M 339.566406 223.195312 L 313.59375 228.121094 C 311.089844 228.621094 309.167969 230.542969 308.582031 232.964844 C 306.078125 243.90625 301.734375 254.257812 295.972656 263.527344 C 294.636719 265.699219 294.636719 268.457031 296.058594 270.542969 L 310.921875 292.421875 L 292.800781 310.542969 L 270.921875 295.679688 C 268.835938 294.257812 266.078125 294.257812 263.90625 295.597656 C 254.636719 301.359375 244.367188 305.699219 233.34375 308.207031 C 230.839844 308.789062 228.917969 310.710938 228.5 313.214844 L 223.574219 339.1875 L 197.9375 339.1875 L 193.007812 313.214844 C 192.507812 310.710938 190.585938 308.789062 188.164062 308.207031 C 177.226562 305.699219 166.871094 301.359375 157.601562 295.597656 C 155.429688 294.257812 152.675781 294.257812 150.585938 295.679688 L 128.707031 310.542969 L 110.585938 292.421875 L 125.453125 270.542969 C 126.871094 268.457031 126.871094 265.699219 125.535156 263.527344 C 119.773438 254.257812 115.429688 243.988281 112.925781 232.964844 C 112.339844 230.460938 110.421875 228.539062 107.914062 228.121094 L 81.945312 223.195312 L 81.945312 197.558594 L 107.914062 192.628906 C 110.421875 192.128906 112.339844 190.210938 112.925781 187.789062 C 115.429688 176.847656 119.773438 166.492188 125.535156 157.222656 C 126.871094 155.050781 126.871094 152.296875 125.453125 150.207031 L 110.585938 128.328125 L 128.707031 110.207031 L 150.585938 125.074219 C 152.675781 126.492188 155.429688 126.492188 157.601562 125.15625 C 166.871094 119.394531 177.144531 115.050781 188.164062 112.546875 C 190.671875 111.960938 192.589844 110.042969 193.007812 107.535156 L 197.9375 81.566406 L 223.574219 81.566406 L 228.5 107.535156 C 229 110.042969 230.921875 111.960938 233.34375 112.546875 C 244.28125 115.050781 254.636719 119.394531 263.90625 125.15625 C 266.078125 126.492188 268.835938 126.492188 270.921875 125.074219 L 292.800781 110.207031 L 310.921875 128.328125 L 296.058594 150.207031 C 294.636719 152.296875 294.636719 155.050781 295.972656 157.222656 C 301.734375 166.492188 306.078125 176.765625 308.582031 187.789062 C 309.167969 190.292969 311.089844 192.214844 313.59375 192.628906 L 339.566406 197.558594 Z M 339.566406 223.195312 " fill-opacity="1" fill-rule="nonzero"/></g><path fill="#ffffff" d="M 210.796875 140.1875 C 172.132812 140.1875 140.648438 171.671875 140.648438 210.335938 C 140.648438 249 172.132812 280.480469 210.796875 280.480469 C 249.460938 280.480469 280.941406 249 280.941406 210.335938 C 280.941406 171.671875 249.460938 140.1875 210.796875 140.1875 Z M 210.796875 269.457031 C 178.226562 269.457031 151.671875 242.902344 151.671875 210.335938 C 151.671875 177.765625 178.226562 151.210938 210.796875 151.210938 C 243.363281 151.210938 269.917969 177.765625 269.917969 210.335938 C 269.917969 242.902344 243.363281 269.457031 210.796875 269.457031 Z M 210.796875 269.457031 " fill-opacity="1" fill-rule="nonzero"/></svg>