<svg xmlns="http://www.w3.org/2000/svg" xmlns:xlink="http://www.w3.org/1999/xlink" width="500" zoomAndPan="magnify" viewBox="0 0 375 374.999991" height="500" preserveAspectRatio="xMidYMid meet" version="1.0"><defs><clipPath id="d6613aff9d"><path d="M 25.339844 25 L 349.339844 25 L 349.339844 350 L 25.339844 350 Z M 25.339844 25 " clip-rule="nonzero"/></clipPath></defs><g clip-path="url(#d6613aff9d)"><path fill="#ffffff" d="M 348.296875 294.425781 L 300.40625 246.890625 C 299.085938 245.582031 297.113281 245.195312 295.402344 245.910156 C 293.6875 246.621094 292.570312 248.296875 292.570312 250.152344 L 292.570312 275.304688 L 250.960938 275.304688 C 278.082031 255.613281 295.75 223.664062 295.75 187.660156 C 295.75 127.96875 247.1875 79.40625 187.496094 79.40625 C 170.128906 79.40625 153.707031 83.523438 139.144531 90.824219 L 77.828125 90.824219 C 75.289062 90.824219 73.234375 92.882812 73.234375 95.421875 L 73.234375 114.132812 L 36.460938 77.632812 L 73.234375 41.132812 L 73.234375 59.847656 C 73.234375 62.382812 75.289062 64.441406 77.828125 64.441406 L 187.496094 64.441406 C 190.035156 64.441406 192.09375 62.382812 192.09375 59.847656 C 192.09375 57.308594 190.035156 55.25 187.496094 55.25 L 82.425781 55.25 L 82.425781 30.097656 C 82.425781 28.242188 81.308594 26.570312 79.59375 25.855469 C 77.882812 25.140625 75.90625 25.527344 74.589844 26.835938 L 26.699219 74.371094 C 25.828125 75.234375 25.339844 76.40625 25.339844 77.632812 C 25.339844 78.859375 25.828125 80.03125 26.699219 80.894531 L 74.589844 128.429688 C 75.46875 129.300781 76.640625 129.765625 77.828125 129.765625 C 78.425781 129.765625 79.023438 129.648438 79.59375 129.410156 C 81.308594 128.699219 82.425781 127.023438 82.425781 125.167969 L 82.425781 100.015625 L 124.035156 100.015625 C 96.914062 119.707031 79.242188 151.65625 79.242188 187.660156 C 79.242188 247.351562 127.804688 295.914062 187.496094 295.914062 C 204.867188 295.914062 221.289062 291.796875 235.851562 284.496094 L 297.167969 284.496094 C 299.707031 284.496094 301.761719 282.4375 301.761719 279.898438 L 301.761719 261.1875 L 338.539062 297.6875 L 301.761719 334.1875 L 301.761719 315.472656 C 301.761719 312.9375 299.707031 310.878906 297.167969 310.878906 L 187.496094 310.878906 C 184.960938 310.878906 182.902344 312.9375 182.902344 315.472656 C 182.902344 318.011719 184.960938 320.070312 187.496094 320.070312 L 292.570312 320.070312 L 292.570312 345.222656 C 292.570312 347.078125 293.6875 348.75 295.402344 349.464844 C 295.972656 349.703125 296.570312 349.816406 297.167969 349.816406 C 298.355469 349.816406 299.527344 349.355469 300.40625 348.484375 L 348.296875 300.949219 C 349.167969 300.085938 349.65625 298.910156 349.65625 297.6875 C 349.65625 296.460938 349.167969 295.289062 348.296875 294.425781 Z M 88.433594 187.660156 C 88.433594 133.035156 132.875 88.597656 187.496094 88.597656 C 242.121094 88.597656 286.5625 133.035156 286.5625 187.660156 C 286.5625 242.285156 242.121094 286.722656 187.496094 286.722656 C 132.875 286.722656 88.433594 242.285156 88.433594 187.660156 Z M 187.496094 104.929688 C 141.878906 104.929688 104.765625 142.042969 104.765625 187.660156 C 104.765625 233.277344 141.878906 270.390625 187.496094 270.390625 C 233.117188 270.390625 270.230469 233.277344 270.230469 187.660156 C 270.230469 142.042969 233.117188 104.929688 187.496094 104.929688 Z M 187.496094 261.199219 C 146.949219 261.199219 113.957031 228.210938 113.957031 187.660156 C 113.957031 147.109375 146.949219 114.121094 187.496094 114.121094 C 228.046875 114.121094 261.039062 147.109375 261.039062 187.660156 C 261.039062 228.210938 228.046875 261.199219 187.496094 261.199219 Z M 213.101562 206.765625 C 213.101562 218.183594 204.070312 227.714844 192.183594 229.726562 L 192.339844 236.285156 C 192.402344 238.824219 190.394531 240.929688 187.859375 240.992188 C 187.820312 240.992188 187.78125 240.992188 187.746094 240.992188 C 185.257812 240.992188 183.210938 239.007812 183.152344 236.507812 L 182.992188 229.804688 C 175.75 228.734375 171.296875 225.078125 166.769531 220.800781 C 164.921875 219.0625 164.835938 216.152344 166.578125 214.304688 C 168.320312 212.460938 171.226562 212.375 173.074219 214.117188 C 178.164062 218.917969 181.292969 220.925781 187.496094 220.925781 C 196.546875 220.925781 203.90625 214.574219 203.90625 206.765625 C 203.90625 198.953125 196.546875 192.601562 187.496094 192.601562 C 173.378906 192.601562 161.894531 182.125 161.894531 169.246094 C 161.894531 157.824219 170.933594 148.289062 182.828125 146.28125 L 182.652344 139.035156 C 182.59375 136.496094 184.601562 134.390625 187.136719 134.328125 C 189.671875 134.253906 191.78125 136.277344 191.84375 138.8125 L 192.023438 146.417969 C 198.398438 147.734375 206.5625 151.4375 209.972656 156.632812 C 211.367188 158.753906 210.777344 161.601562 208.65625 162.996094 C 206.535156 164.390625 203.6875 163.800781 202.292969 161.679688 C 200.199219 158.496094 191.820312 155.082031 187.496094 155.082031 C 178.449219 155.082031 171.085938 161.4375 171.085938 169.246094 C 171.085938 177.054688 178.449219 183.410156 187.496094 183.410156 C 201.613281 183.410156 213.101562 193.886719 213.101562 206.765625 Z M 213.101562 206.765625 " fill-opacity="1" fill-rule="nonzero"/></g></svg>